<svg id="图层_1" data-name="图层 1" xmlns="http://www.w3.org/2000/svg" xmlns:xlink="http://www.w3.org/1999/xlink" viewBox="0 0 842 595"><defs><style>.cls-1,.cls-16,.cls-18,.cls-20,.cls-24,.cls-28,.cls-30,.cls-31,.cls-32,.cls-35,.cls-5{fill:none;}.cls-2{clip-path:url(#clip-path);}.cls-3{clip-path:url(#clip-path-2);}.cls-4{fill:#fffcf8;}.cls-18,.cls-5{stroke:#000;}.cls-16,.cls-18,.cls-20,.cls-24,.cls-28,.cls-30,.cls-31,.cls-32,.cls-35,.cls-5{stroke-linecap:round;stroke-miterlimit:10;}.cls-16,.cls-28,.cls-30,.cls-5{stroke-width:0.24px;}.cls-21,.cls-22,.cls-25,.cls-6{font-size:6.47px;}.cls-21,.cls-25,.cls-33,.cls-6{font-family:TimesNewRomanPSMT, Times New Roman;}.cls-7{letter-spacing:0.01em;}.cls-8{letter-spacing:0.01em;}.cls-9{letter-spacing:0.01em;}.cls-10{letter-spacing:0.01em;}.cls-11,.cls-13{font-size:7.19px;font-family:#cb#ce#cc#e5;}.cls-12{letter-spacing:-0.01em;}.cls-13{letter-spacing:-0.01em;}.cls-14{letter-spacing:0em;}.cls-15{letter-spacing:0.01em;}.cls-16,.cls-20{stroke:blue;}.cls-17{fill:blue;fill-rule:evenodd;}.cls-18,.cls-20,.cls-24,.cls-31,.cls-32,.cls-35{stroke-width:0.72px;}.cls-19{font-size:4.07px;}.cls-19,.cls-21,.cls-22,.cls-27,.cls-34{fill:navy;}.cls-19,.cls-34{font-family:Verdana;}.cls-22{font-family:Times New Roman;}.cls-23{letter-spacing:0.01em;}.cls-24,.cls-30{stroke:maroon;}.cls-25{fill:maroon;}.cls-26{letter-spacing:0em;}.cls-28,.cls-35{stroke:navy;}.cls-29{fill:#ffffb0;}.cls-31{stroke:#0000bf;}.cls-32{stroke:#0c0087;}.cls-33{font-size:6.46px;}.cls-34{font-size:4.07px;}</style><clipPath id="clip-path"><rect class="cls-1" width="842" height="595"/></clipPath><clipPath id="clip-path-2"><rect class="cls-1" y="-0.02" width="837.06" height="572.21"/></clipPath></defs><g class="cls-2"><g class="cls-3"><rect class="cls-4" x="6.33" y="23.67" width="828.65" height="547.1"/><rect class="cls-5" x="6.33" y="23.67" width="828.65" height="547.1"/><rect class="cls-4" x="20.72" y="38.05" width="799.84" height="518.34"/><rect class="cls-5" x="20.72" y="38.05" width="799.84" height="518.34"/><line class="cls-5" x1="213.47" y1="570.77" x2="213.47" y2="556.4"/><text class="cls-6" transform="translate(107.45 565.74)">1</text><line class="cls-5" x1="213.47" y1="23.66" x2="213.47" y2="38.05"/><text class="cls-6" transform="translate(107.45 33.05)">1</text><line class="cls-5" x1="420.63" y1="570.77" x2="420.63" y2="556.4"/><text class="cls-6" transform="translate(313.96 565.74)">2</text><line class="cls-5" x1="420.63" y1="23.66" x2="420.63" y2="38.05"/><text class="cls-6" transform="translate(313.96 33.05)">2</text><line class="cls-5" x1="627.8" y1="570.77" x2="627.8" y2="556.4"/><text class="cls-6" transform="translate(521.43 565.74)">3</text><line class="cls-5" x1="627.8" y1="23.67" x2="627.8" y2="38.05"/><text class="cls-6" transform="translate(521.43 33.05)">3</text><line class="cls-5" x1="834.97" y1="570.77" x2="834.97" y2="556.4"/><text class="cls-6" transform="translate(728.18 565.74)">4</text><line class="cls-5" x1="834.97" y1="23.67" x2="834.97" y2="38.05"/><text class="cls-6" transform="translate(728.18 33.05)">4</text><line class="cls-5" x1="6.31" y1="434.01" x2="20.72" y2="434.01"/><text class="cls-6" transform="translate(11.27 504.64)">D</text><line class="cls-5" x1="834.97" y1="434.01" x2="820.55" y2="434.01"/><text class="cls-6" transform="translate(825.56 504.64)">D</text><line class="cls-5" x1="6.31" y1="297.22" x2="20.72" y2="297.22"/><text class="cls-6" transform="translate(11.27 367.81)">C</text><line class="cls-5" x1="834.97" y1="297.24" x2="820.55" y2="297.24"/><text class="cls-6" transform="translate(825.56 367.81)">C</text><line class="cls-5" x1="6.31" y1="160.44" x2="20.72" y2="160.44"/><text class="cls-6" transform="translate(11.51 230.98)">B</text><line class="cls-5" x1="834.97" y1="160.44" x2="820.55" y2="160.44"/><text class="cls-6" transform="translate(825.8 230.98)">B</text><line class="cls-5" x1="6.31" y1="23.66" x2="20.72" y2="23.66"/><text class="cls-6" transform="translate(11.03 94.39)">A</text><line class="cls-5" x1="834.97" y1="23.67" x2="820.55" y2="23.67"/><text class="cls-6" transform="translate(825.32 94.39)">A</text><line class="cls-5" x1="568.35" y1="498.8" x2="820.55" y2="498.8"/><line class="cls-5" x1="568.35" y1="520.39" x2="820.55" y2="520.39"/><line class="cls-5" x1="568.35" y1="541.99" x2="820.55" y2="541.99"/><line class="cls-5" x1="568.35" y1="549.18" x2="820.55" y2="549.18"/><line class="cls-5" x1="568.35" y1="498.8" x2="568.35" y2="556.4"/><line class="cls-5" x1="748.51" y1="520.39" x2="748.51" y2="541.99"/><line class="cls-5" x1="604.39" y1="520.39" x2="604.39" y2="541.99"/><line class="cls-5" x1="712.47" y1="541.99" x2="712.47" y2="556.4"/><text class="cls-6" transform="translate(571.8 504.64)">T</text><text class="cls-6" transform="translate(575.63 504.64)">i</text><text class="cls-6" transform="translate(577.54 504.64)">t</text><text class="cls-6" transform="translate(579.22 504.64)">l</text><text class="cls-6" transform="translate(580.9 504.64)">e</text><text class="cls-6" transform="translate(608.02 526.2)">N</text><text class="cls-6" transform="translate(612.8 526.2)">u</text><text class="cls-6" transform="translate(616.15 526.2)"><tspan class="cls-7">m</tspan><tspan x="5.09" y="0">b</tspan></text><text class="cls-6" transform="translate(624.53 526.2)">e</text><text class="cls-6" transform="translate(627.17 526.2)">r</text><text class="cls-6" transform="translate(751.93 526.2)"><tspan class="cls-8">Re</tspan><tspan x="7.26" y="0">v</tspan></text><text class="cls-6" transform="translate(762.46 526.2)">i</text><text class="cls-6" transform="translate(764.37 526.2)">s</text><text class="cls-6" transform="translate(766.77 526.2)">i</text><text class="cls-6" transform="translate(768.44 526.2)">o</text><text class="cls-6" transform="translate(771.55 526.2)">n</text><text class="cls-6" transform="translate(571.8 526.2)"><tspan class="cls-9">S</tspan><tspan x="3.65" y="0">i</tspan></text><text class="cls-6" transform="translate(577.31 526.2)">ze</text><text class="cls-6" transform="translate(575.4 536.99)">A</text><text class="cls-6" transform="translate(579.95 536.99)">4</text><text class="cls-6" transform="translate(571.8 547.77)">D</text><text class="cls-6" transform="translate(576.59 547.77)"><tspan class="cls-10">a</tspan><tspan x="2.93" y="0">t</tspan></text><text class="cls-6" transform="translate(581.37 547.77)">e</text><text class="cls-6" transform="translate(584.01 547.77)">:</text><text class="cls-6" transform="translate(604.42 547.77)">2</text><text class="cls-6" transform="translate(607.77 547.77)">/</text><text class="cls-6" transform="translate(609.69 547.77)">0</text><text class="cls-6" transform="translate(613.04 547.77)">4</text><text class="cls-6" transform="translate(616.39 547.77)">/</text><text class="cls-6" transform="translate(618.06 547.77)">2</text><text class="cls-6" transform="translate(621.17 547.77)">0</text><text class="cls-6" transform="translate(624.29 547.77)">2</text><text class="cls-6" transform="translate(627.4 547.77)">2</text><text class="cls-6" transform="translate(715.95 547.77)"><tspan class="cls-9">S</tspan><tspan x="3.65" y="0">h</tspan></text><text class="cls-6" transform="translate(722.89 547.77)"><tspan class="cls-8">ee</tspan><tspan x="5.82" y="0">t</tspan></text><text class="cls-6" transform="translate(734.86 547.77)">o</text><text class="cls-6" transform="translate(738.21 547.77)">f</text><text class="cls-6" transform="translate(571.8 554.96)"><tspan class="cls-9">F</tspan><tspan x="3.65" y="0">i</tspan></text><text class="cls-6" transform="translate(577.31 554.96)">l</text><text class="cls-6" transform="translate(579.22 554.96)">e</text><text class="cls-6" transform="translate(581.85 554.96)">:</text><text class="cls-6" transform="translate(604.42 554.96)"><tspan class="cls-9">F</tspan><tspan x="3.65" y="0">:</tspan></text><text class="cls-6" transform="translate(609.92 554.96)">\</text><text class="cls-11" transform="translate(611.61 554.96)"><tspan class="cls-12">社团</tspan><tspan x="14.22" y="0">部</tspan></text><text class="cls-11" transform="translate(632.92 554.96)">门</text><text class="cls-6" transform="translate(640.16 554.96)">\</text><text class="cls-6" transform="translate(641.83 554.96)">..\</text><text class="cls-13" transform="translate(647.11 554.96)">题目一原<tspan class="cls-14" x="28.58" y="0">理</tspan></text><text class="cls-11" transform="translate(682.78 554.96)">图</text><text class="cls-6" transform="translate(690.04 554.96)">.</text><text class="cls-6" transform="translate(691.72 554.96)"><tspan class="cls-15">Sc</tspan><tspan x="6.55" y="0">h</tspan></text><text class="cls-6" transform="translate(701.54 554.96)">D</text><text class="cls-6" transform="translate(706.33 554.96)">o</text><text class="cls-6" transform="translate(709.44 554.96)">c</text><text class="cls-6" transform="translate(715.95 554.96)">D</text><text class="cls-6" transform="translate(720.74 554.96)"><tspan class="cls-8">ra</tspan><tspan x="5.1" y="0">w</tspan></text><text class="cls-6" transform="translate(730.55 554.96)">n</text><text class="cls-6" transform="translate(735.1 554.96)"><tspan class="cls-10">B</tspan><tspan x="4.37" y="0">y</tspan></text><text class="cls-6" transform="translate(742.76 554.96)">:</text><line class="cls-16" x1="494.15" y1="290.02" x2="484.04" y2="290.02"/><line class="cls-16" x1="489.08" y1="275.63" x2="489.08" y2="282.82"/><line class="cls-16" x1="489.08" y1="290.02" x2="489.08" y2="297.22"/><polygon class="cls-17" points="489.08 290.02 489.08 290.02 484.05 282.83 494.15 282.83 489.08 290.02"/><polygon class="cls-16" points="489.08 290.02 489.08 290.02 484.05 282.83 494.15 282.83 489.08 290.02"/><polygon class="cls-17" points="494.87 298.68 494.87 298.68 496.31 301.55 493.43 300.11 494.87 298.68"/><polygon class="cls-16" points="494.87 298.68 494.87 298.68 496.31 301.55 493.43 300.11 494.87 298.68"/><polygon class="cls-17" points="494.87 294.33 494.87 294.33 496.31 297.24 493.43 295.8 494.87 294.33"/><polygon class="cls-16" points="494.87 294.33 494.87 294.33 496.31 297.24 493.43 295.8 494.87 294.33"/><line class="cls-16" x1="495.59" y1="296.52" x2="491.24" y2="292.18"/><line class="cls-16" x1="495.59" y1="300.83" x2="491.24" y2="296.52"/><line class="cls-18" x1="489.08" y1="275.63" x2="489.08" y2="268.42"/><line class="cls-18" x1="489.08" y1="300.82" x2="489.08" y2="304.41"/><text class="cls-19" transform="matrix(0, 1, -1, 0, 483.54, 290.65)">R</text><text class="cls-19" transform="matrix(0, 1, -1, 0, 483.54, 293.52)">E</text><text class="cls-19" transform="matrix(0, 1, -1, 0, 483.54, 296.16)">D</text><text class="cls-19" transform="matrix(0, 1, -1, 0, 484.25, 271.24)">D</text><text class="cls-19" transform="matrix(0, 1, -1, 0, 484.25, 274.35)">2</text><line class="cls-16" x1="400.46" y1="290.02" x2="390.37" y2="290.02"/><line class="cls-16" x1="395.41" y1="275.63" x2="395.41" y2="282.82"/><line class="cls-16" x1="395.41" y1="290.02" x2="395.41" y2="297.22"/><polygon class="cls-17" points="395.41 290.02 395.41 290.02 390.37 282.82 400.46 282.82 395.41 290.02"/><polygon class="cls-16" points="395.41 290.02 395.41 290.02 390.37 282.82 400.46 282.82 395.41 290.02"/><polygon class="cls-17" points="401.18 298.66 401.18 298.66 402.62 301.54 399.74 300.1 401.18 298.66"/><polygon class="cls-16" points="401.18 298.66 401.18 298.66 402.62 301.54 399.74 300.1 401.18 298.66"/><polygon class="cls-17" points="401.18 294.33 401.18 294.33 402.62 297.22 399.74 295.79 401.18 294.33"/><polygon class="cls-16" points="401.18 294.33 401.18 294.33 402.62 297.22 399.74 295.79 401.18 294.33"/><line class="cls-16" x1="401.9" y1="296.5" x2="397.58" y2="292.18"/><line class="cls-16" x1="401.9" y1="300.82" x2="397.58" y2="296.5"/><line class="cls-18" x1="395.41" y1="275.63" x2="395.41" y2="268.42"/><line class="cls-18" x1="395.41" y1="300.82" x2="395.41" y2="304.41"/><text class="cls-19" transform="matrix(0, 1, -1, 0, 389.75, 290.65)">B</text><text class="cls-19" transform="matrix(0, 1, -1, 0, 389.75, 293.52)">L</text><text class="cls-19" transform="matrix(0, 1, -1, 0, 389.75, 295.68)">U</text><text class="cls-19" transform="matrix(0, 1, -1, 0, 389.75, 298.56)">E</text><text class="cls-19" transform="matrix(0, 1, -1, 0, 390.47, 271.24)">D</text><text class="cls-19" transform="matrix(0, 1, -1, 0, 390.47, 274.35)">1</text><line class="cls-20" x1="438.65" y1="261.22" x2="438.65" y2="259.06"/><line class="cls-20" x1="438.65" y1="259.06" x2="435.76" y2="257.63"/><line class="cls-20" x1="435.76" y1="257.63" x2="441.53" y2="256.19"/><line class="cls-20" x1="441.53" y1="256.19" x2="435.76" y2="254.75"/><line class="cls-20" x1="435.76" y1="254.75" x2="441.53" y2="253.31"/><line class="cls-20" x1="441.53" y1="253.31" x2="435.76" y2="251.86"/><line class="cls-20" x1="435.76" y1="251.86" x2="441.53" y2="250.42"/><line class="cls-20" x1="441.53" y1="250.42" x2="438.65" y2="248.98"/><line class="cls-20" x1="438.65" y1="248.98" x2="438.65" y2="246.83"/><line class="cls-18" x1="438.65" y1="261.94" x2="438.65" y2="268.42"/><line class="cls-18" x1="438.65" y1="246.11" x2="438.65" y2="239.62"/><text class="cls-21" transform="translate(442.28 252.07)"><tspan class="cls-10">R</tspan><tspan x="4.37" y="0">2</tspan></text><text class="cls-21" transform="translate(442.28 259.26)">1</text><text class="cls-21" transform="translate(445.63 259.26)">0</text><text class="cls-21" transform="translate(448.98 259.26)">K</text><text class="cls-22" transform="translate(453.53 259.26)">Ω</text><line class="cls-20" x1="352.17" y1="261.22" x2="352.17" y2="259.06"/><line class="cls-20" x1="352.17" y1="259.06" x2="349.29" y2="257.63"/><line class="cls-20" x1="349.29" y1="257.63" x2="355.07" y2="256.19"/><line class="cls-20" x1="355.07" y1="256.19" x2="349.29" y2="254.75"/><line class="cls-20" x1="349.29" y1="254.75" x2="355.07" y2="253.31"/><line class="cls-20" x1="355.07" y1="253.31" x2="349.29" y2="251.86"/><line class="cls-20" x1="349.29" y1="251.86" x2="355.07" y2="250.42"/><line class="cls-20" x1="355.07" y1="250.42" x2="352.17" y2="248.98"/><line class="cls-20" x1="352.17" y1="248.98" x2="352.17" y2="246.83"/><line class="cls-18" x1="352.17" y1="261.94" x2="352.17" y2="268.42"/><line class="cls-18" x1="352.17" y1="246.11" x2="352.17" y2="239.62"/><text class="cls-21" transform="translate(355.7 252.07)"><tspan class="cls-23">R</tspan><tspan x="4.37" y="0">1</tspan></text><text class="cls-21" transform="translate(355.7 259.26)">1</text><text class="cls-21" transform="translate(359.05 259.26)">0</text><text class="cls-21" transform="translate(362.4 259.26)">K</text><text class="cls-22" transform="translate(366.95 259.26)">Ω</text><line class="cls-24" x1="485.48" y1="218.04" x2="492.71" y2="218.04"/><text class="cls-25" transform="translate(485.69 216.6)"><tspan class="cls-26">+</tspan><tspan x="3.68" y="0">5</tspan></text><line class="cls-24" x1="489.08" y1="225.23" x2="489.08" y2="218.03"/><path class="cls-27" d="M487.64,225.23a1.44,1.44,0,1,1,1.44,1.44A1.45,1.45,0,0,1,487.64,225.23Z"/><path class="cls-28" d="M487.64,225.23a1.46,1.46,0,0,1,1.44-1.44,1.44,1.44,0,0,1,1.44,1.44,1.42,1.42,0,0,1-1.44,1.44A1.44,1.44,0,0,1,487.64,225.23Z"/><rect class="cls-29" x="539.54" y="282.83" width="14.39" height="21.6"/><rect class="cls-30" x="539.54" y="282.83" width="14.39" height="21.6"/><line class="cls-18" x1="539.54" y1="290.02" x2="525.12" y2="290.02"/><text class="cls-6" transform="translate(544.46 292.33)">1</text><line class="cls-18" x1="539.54" y1="297.24" x2="525.12" y2="297.24"/><text class="cls-6" transform="translate(544.46 299.51)">2</text><text class="cls-21" transform="translate(539.42 281.54)">J</text><text class="cls-21" transform="translate(541.81 281.54)">1</text><text class="cls-21" transform="translate(539.42 310.3)"><tspan class="cls-10">C</tspan><tspan x="4.37" y="0">O</tspan></text><text class="cls-21" transform="translate(548.52 310.3)">N</text><text class="cls-21" transform="translate(553.06 310.3)">1</text><line class="cls-24" x1="517.92" y1="286.43" x2="517.92" y2="293.61"/><text class="cls-25" transform="translate(509.92 292.33)"><tspan class="cls-26">+</tspan><tspan x="3.68" y="0">5</tspan></text><line class="cls-24" x1="525.12" y1="290.02" x2="517.92" y2="290.02"/><line class="cls-31" x1="419.92" y1="325.29" x2="419.92" y2="312.34"/><line class="cls-32" x1="414.86" y1="325.29" x2="414.86" y2="312.34"/><line class="cls-18" x1="420.63" y1="318.82" x2="431.44" y2="318.82"/><line class="cls-18" x1="414.86" y1="318.82" x2="404.06" y2="318.82"/><text class="cls-21" transform="translate(425.01 320.84) rotate(180)">+</text><text class="cls-21" transform="translate(402.47 324.68)"><tspan class="cls-23">C</tspan><tspan x="4.37" y="0">1</tspan></text><text class="cls-21" transform="translate(413.98 332.58)">2</text><text class="cls-21" transform="translate(417.33 332.58)">2</text><text class="cls-22" transform="translate(420.68 332.58)">µ</text><text class="cls-21" transform="translate(424.27 332.58)">F</text><line class="cls-31" x1="414.14" y1="341.14" x2="414.14" y2="354.09"/><line class="cls-32" x1="419.2" y1="341.14" x2="419.2" y2="354.09"/><line class="cls-18" x1="413.42" y1="347.61" x2="402.62" y2="347.61"/><line class="cls-18" x1="419.2" y1="347.61" x2="430" y2="347.61"/><text class="cls-21" transform="translate(408.94 345.52)">+</text><text class="cls-21" transform="translate(402.47 353.43)"><tspan class="cls-23">C</tspan><tspan x="4.37" y="0">2</tspan></text><text class="cls-21" transform="translate(408.94 360.62)">2</text><text class="cls-21" transform="translate(412.29 360.62)">2</text><text class="cls-22" transform="translate(415.64 360.62)">µ</text><text class="cls-21" transform="translate(419.23 360.62)">F</text><path class="cls-27" d="M487.64,412.41a1.44,1.44,0,1,1,1.44,1.44A1.44,1.44,0,0,1,487.64,412.41Z"/><path class="cls-28" d="M487.64,412.41a1.44,1.44,0,0,1,1.44-1.44,1.44,1.44,0,0,1,0,2.88A1.44,1.44,0,0,1,487.64,412.41Z"/><polygon class="cls-17" points="481.17 389.66 484.05 393.25 479.58 393.82 481.17 389.66"/><polygon class="cls-20" points="481.17 389.66 484.05 393.25 479.58 393.82 481.17 389.66"/><line class="cls-20" x1="474.68" y1="380" x2="489.08" y2="369.2"/><path class="cls-20" d="M467.47,383.62A15.58,15.58,0,1,1,483,399.17,15.55,15.55,0,0,1,467.47,383.62Z"/><path class="cls-20" d="M498.62,383.62A15.58,15.58,0,1,0,483,399.17a15.57,15.57,0,0,0,15.59-15.55"/><line class="cls-20" x1="474.68" y1="376.41" x2="474.68" y2="390.81"/><line class="cls-20" x1="474.68" y1="383.61" x2="467.47" y2="383.61"/><line class="cls-20" x1="474.68" y1="387.2" x2="489.08" y2="398"/><line class="cls-18" x1="466.75" y1="383.61" x2="453.06" y2="383.61"/><text class="cls-6" transform="translate(471.78 385.78)">B</text><text class="cls-6" transform="translate(458.35 382.19)">1</text><line class="cls-18" x1="489.08" y1="368.06" x2="489.08" y2="354.81"/><text class="cls-33" transform="matrix(0, -1, 1, 0, 491.21, 377.15)">C</text><text class="cls-33" transform="matrix(0, -1, 1, 0, 487.61, 362.3)">3</text><line class="cls-18" x1="489.08" y1="399.16" x2="489.08" y2="412.41"/><text class="cls-33" transform="matrix(0, -1, 1, 0, 491.21, 394.17)">E</text><text class="cls-33" transform="matrix(0, -1, 1, 0, 487.61, 407.83)">2</text><path class="cls-27" d="M487.64,412.41a1.44,1.44,0,1,1,1.44,1.44A1.44,1.44,0,0,1,487.64,412.41Z"/><path class="cls-28" d="M487.64,412.41a1.44,1.44,0,0,1,1.44-1.44,1.44,1.44,0,0,1,0,2.88A1.44,1.44,0,0,1,487.64,412.41Z"/><text class="cls-34" transform="translate(467.47 368.29)">Q</text><text class="cls-34" transform="translate(470.58 368.29)">2</text><text class="cls-34" transform="translate(481.86 382.91)">S</text><text class="cls-34" transform="translate(484.73 382.91)">8</text><text class="cls-34" transform="translate(487.36 382.91)">0</text><text class="cls-34" transform="translate(490 382.91)">5</text><text class="cls-34" transform="translate(492.63 382.91)">0</text><polygon class="cls-17" points="387.49 389.66 390.37 393.25 385.9 393.82 387.49 389.66"/><polygon class="cls-20" points="387.49 389.66 390.37 393.25 385.9 393.82 387.49 389.66"/><line class="cls-20" x1="381" y1="380" x2="395.41" y2="369.2"/><path class="cls-20" d="M373.79,383.61a15.57,15.57,0,1,1,15.57,15.55A15.55,15.55,0,0,1,373.79,383.61Z"/><path class="cls-20" d="M404.92,383.61a15.57,15.57,0,1,0-15.56,15.55,15.55,15.55,0,0,0,15.56-15.55"/><line class="cls-20" x1="381" y1="376.41" x2="381" y2="390.81"/><line class="cls-20" x1="381" y1="383.61" x2="373.79" y2="383.61"/><line class="cls-20" x1="381" y1="387.2" x2="395.41" y2="398"/><line class="cls-18" x1="373.07" y1="383.61" x2="359.38" y2="383.61"/><text class="cls-6" transform="translate(378 385.78)">B</text><text class="cls-6" transform="translate(364.81 382.19)">1</text><line class="cls-18" x1="395.41" y1="368.06" x2="395.41" y2="354.81"/><text class="cls-33" transform="matrix(0, -1, 1, 0, 397.67, 377.15)">C</text><text class="cls-33" transform="matrix(0, -1, 1, 0, 394.07, 362.3)">3</text><line class="cls-18" x1="395.41" y1="399.16" x2="395.41" y2="412.41"/><text class="cls-33" transform="matrix(0, -1, 1, 0, 397.67, 394.17)">E</text><text class="cls-33" transform="matrix(0, -1, 1, 0, 394.07, 407.83)">2</text><text class="cls-34" transform="translate(373.68 368.29)">Q</text><text class="cls-34" transform="translate(376.8 368.29)">1</text><text class="cls-34" transform="translate(388.08 382.91)">S</text><text class="cls-34" transform="translate(390.95 382.91)">8</text><text class="cls-34" transform="translate(393.58 382.91)">0</text><text class="cls-34" transform="translate(396.21 382.91)">5</text><text class="cls-34" transform="translate(398.85 382.91)">0</text><line class="cls-24" x1="481.89" y1="419.6" x2="496.31" y2="419.6"/><line class="cls-24" x1="484.04" y1="421.76" x2="494.15" y2="421.76"/><line class="cls-24" x1="486.2" y1="423.94" x2="491.96" y2="423.94"/><line class="cls-24" x1="488.36" y1="426.08" x2="489.8" y2="426.08"/><text class="cls-25" transform="translate(482.1 432.75)">G</text><text class="cls-25" transform="translate(486.64 432.75)">N</text><text class="cls-25" transform="translate(491.43 432.75)">D</text><line class="cls-24" x1="489.08" y1="412.41" x2="489.08" y2="419.6"/><path class="cls-27" d="M487.64,412.41a1.44,1.44,0,1,1,1.44,1.44A1.44,1.44,0,0,1,487.64,412.41Z"/><path class="cls-28" d="M487.64,412.41a1.44,1.44,0,0,1,1.44-1.44,1.44,1.44,0,0,1,0,2.88A1.44,1.44,0,0,1,487.64,412.41Z"/><line class="cls-24" x1="517.92" y1="304.43" x2="532.31" y2="304.43"/><line class="cls-24" x1="520.08" y1="306.58" x2="530.16" y2="306.58"/><line class="cls-24" x1="522.24" y1="308.74" x2="528" y2="308.74"/><line class="cls-24" x1="524.4" y1="310.9" x2="525.84" y2="310.9"/><text class="cls-25" transform="translate(518.07 317.49)">G</text><text class="cls-25" transform="translate(522.62 317.49)">N</text><text class="cls-25" transform="translate(527.41 317.49)">D</text><line class="cls-24" x1="525.12" y1="297.24" x2="525.12" y2="304.43"/><line class="cls-20" x1="395.41" y1="261.22" x2="395.41" y2="259.06"/><line class="cls-20" x1="395.41" y1="259.06" x2="392.53" y2="257.63"/><line class="cls-20" x1="392.53" y1="257.63" x2="398.3" y2="256.19"/><line class="cls-20" x1="398.3" y1="256.19" x2="392.53" y2="254.75"/><line class="cls-20" x1="392.53" y1="254.75" x2="398.3" y2="253.31"/><line class="cls-20" x1="398.3" y1="253.31" x2="392.53" y2="251.86"/><line class="cls-20" x1="392.53" y1="251.86" x2="398.3" y2="250.42"/><line class="cls-20" x1="398.3" y1="250.42" x2="395.41" y2="248.98"/><line class="cls-20" x1="395.41" y1="248.98" x2="395.41" y2="246.83"/><line class="cls-18" x1="395.41" y1="261.94" x2="395.41" y2="268.42"/><line class="cls-18" x1="395.41" y1="246.11" x2="395.41" y2="239.62"/><text class="cls-21" transform="translate(398.87 252.07)"><tspan class="cls-23">R</tspan><tspan x="4.37" y="0">3</tspan></text><text class="cls-21" transform="translate(398.87 259.26)">1</text><text class="cls-21" transform="translate(402.22 259.26)">0</text><text class="cls-21" transform="translate(405.57 259.26)">0</text><text class="cls-22" transform="translate(408.68 259.26)">Ω</text><line class="cls-20" x1="489.08" y1="261.22" x2="489.08" y2="259.06"/><line class="cls-20" x1="489.08" y1="259.06" x2="486.2" y2="257.63"/><line class="cls-20" x1="486.2" y1="257.64" x2="491.96" y2="256.2"/><line class="cls-20" x1="491.96" y1="256.2" x2="486.2" y2="254.76"/><line class="cls-20" x1="486.2" y1="254.76" x2="491.96" y2="253.33"/><line class="cls-20" x1="491.96" y1="253.33" x2="486.2" y2="251.86"/><line class="cls-20" x1="486.2" y1="251.86" x2="491.96" y2="250.42"/><line class="cls-20" x1="491.96" y1="250.42" x2="489.08" y2="248.98"/><line class="cls-20" x1="489.08" y1="248.98" x2="489.08" y2="246.83"/><line class="cls-18" x1="489.08" y1="261.94" x2="489.08" y2="268.42"/><line class="cls-18" x1="489.08" y1="246.11" x2="489.08" y2="239.62"/><text class="cls-21" transform="translate(492.65 252.07)"><tspan class="cls-10">R</tspan><tspan x="4.37" y="0">4</tspan></text><text class="cls-21" transform="translate(492.65 259.26)">1</text><text class="cls-21" transform="translate(496 259.26)">0</text><text class="cls-21" transform="translate(499.35 259.26)">0</text><text class="cls-22" transform="translate(502.46 259.26)">Ω</text><line class="cls-35" x1="395.41" y1="412.41" x2="489.08" y2="412.41"/><path class="cls-27" d="M487.64,412.41a1.44,1.44,0,1,1,1.44,1.44A1.44,1.44,0,0,1,487.64,412.41Z"/><path class="cls-28" d="M487.64,412.41a1.44,1.44,0,0,1,1.44-1.44,1.44,1.44,0,0,1,0,2.88A1.44,1.44,0,0,1,487.64,412.41Z"/><polyline class="cls-35" points="395.41 304.41 395.41 318.82 395.41 354.81"/><path class="cls-27" d="M394,318.82a1.45,1.45,0,1,1,1.44,1.44A1.44,1.44,0,0,1,394,318.82Z"/><path class="cls-28" d="M394,318.82a1.45,1.45,0,1,1,1.44,1.44A1.44,1.44,0,0,1,394,318.82Z"/><line class="cls-35" x1="352.17" y1="347.61" x2="402.62" y2="347.61"/><path class="cls-27" d="M350.73,347.61a1.45,1.45,0,0,1,2.9,0,1.45,1.45,0,1,1-2.9,0Z"/><path class="cls-28" d="M350.73,347.61a1.45,1.45,0,0,1,2.9,0,1.45,1.45,0,1,1-2.9,0Z"/><line class="cls-35" x1="430" y1="347.61" x2="489.08" y2="347.61"/><path class="cls-27" d="M487.64,347.61a1.44,1.44,0,1,1,1.44,1.45A1.44,1.44,0,0,1,487.64,347.61Z"/><path class="cls-28" d="M487.64,347.62a1.44,1.44,0,0,1,1.44-1.44,1.44,1.44,0,0,1,0,2.88A1.44,1.44,0,0,1,487.64,347.62Z"/><polyline class="cls-35" points="489.08 354.81 489.08 347.61 489.08 304.41"/><path class="cls-27" d="M487.64,347.61a1.44,1.44,0,1,1,1.44,1.45A1.44,1.44,0,0,1,487.64,347.61Z"/><path class="cls-28" d="M487.64,347.62a1.44,1.44,0,0,1,1.44-1.44,1.44,1.44,0,0,1,0,2.88A1.44,1.44,0,0,1,487.64,347.62Z"/><line class="cls-35" x1="404.06" y1="318.82" x2="395.41" y2="318.82"/><path class="cls-27" d="M394,318.82a1.45,1.45,0,1,1,1.44,1.44A1.44,1.44,0,0,1,394,318.82Z"/><path class="cls-28" d="M394,318.82a1.45,1.45,0,1,1,1.44,1.44A1.44,1.44,0,0,1,394,318.82Z"/><line class="cls-35" x1="431.44" y1="318.82" x2="438.65" y2="318.82"/><path class="cls-27" d="M437.2,318.82a1.45,1.45,0,1,1,1.45,1.44A1.44,1.44,0,0,1,437.2,318.82Z"/><path class="cls-28" d="M437.2,318.82a1.45,1.45,0,1,1,1.45,1.44A1.44,1.44,0,0,1,437.2,318.82Z"/><polyline class="cls-35" points="352.17 268.42 352.17 347.61 352.17 383.61 359.38 383.61"/><path class="cls-27" d="M350.73,347.61a1.45,1.45,0,0,1,2.9,0,1.45,1.45,0,1,1-2.9,0Z"/><path class="cls-28" d="M350.73,347.61a1.45,1.45,0,0,1,2.9,0,1.45,1.45,0,1,1-2.9,0Z"/><polyline class="cls-35" points="453.06 383.61 438.65 383.61 438.65 318.82 438.65 268.42"/><path class="cls-27" d="M437.2,318.82a1.45,1.45,0,1,1,1.45,1.44A1.44,1.44,0,0,1,437.2,318.82Z"/><path class="cls-28" d="M437.2,318.82a1.45,1.45,0,1,1,1.45,1.44A1.44,1.44,0,0,1,437.2,318.82Z"/><line class="cls-35" x1="395.41" y1="239.62" x2="395.41" y2="225.23"/><path class="cls-27" d="M394,225.23a1.45,1.45,0,1,1,1.44,1.44A1.44,1.44,0,0,1,394,225.23Z"/><path class="cls-28" d="M394,225.23a1.45,1.45,0,1,1,1.44,1.44A1.44,1.44,0,0,1,394,225.23Z"/><line class="cls-35" x1="438.65" y1="239.62" x2="438.65" y2="225.23"/><path class="cls-27" d="M437.2,225.23a1.45,1.45,0,1,1,1.45,1.44A1.44,1.44,0,0,1,437.2,225.23Z"/><path class="cls-28" d="M437.2,225.23a1.45,1.45,0,1,1,1.45,1.44A1.44,1.44,0,0,1,437.2,225.23Z"/><polyline class="cls-35" points="489.08 239.62 489.08 225.23 438.65 225.23 395.41 225.23 352.17 225.23 352.17 239.62"/><path class="cls-27" d="M487.64,225.23a1.44,1.44,0,1,1,1.44,1.44A1.45,1.45,0,0,1,487.64,225.23Z"/><path class="cls-28" d="M487.64,225.23a1.46,1.46,0,0,1,1.44-1.44,1.44,1.44,0,0,1,1.44,1.44,1.42,1.42,0,0,1-1.44,1.44A1.44,1.44,0,0,1,487.64,225.23Z"/><path class="cls-27" d="M437.2,225.23a1.45,1.45,0,1,1,1.45,1.44A1.44,1.44,0,0,1,437.2,225.23Z"/><path class="cls-28" d="M437.2,225.23a1.45,1.45,0,1,1,1.45,1.44A1.44,1.44,0,0,1,437.2,225.23Z"/><path class="cls-27" d="M394,225.23a1.45,1.45,0,1,1,1.44,1.44A1.44,1.44,0,0,1,394,225.23Z"/><path class="cls-28" d="M394,225.23a1.45,1.45,0,1,1,1.44,1.44A1.44,1.44,0,0,1,394,225.23Z"/></g></g></svg>