G04*
G04 #@! TF.GenerationSoftware,Altium Limited,Altium Designer,22.1.2 (22)*
G04*
G04 Layer_Color=65535*
%FSLAX25Y25*%
%MOIN*%
G70*
G04*
G04 #@! TF.SameCoordinates,FD0A4506-277C-477F-BB0F-5FCC6128DB8B*
G04*
G04*
G04 #@! TF.FilePolarity,Positive*
G04*
G01*
G75*
%ADD10C,0.00984*%
%ADD11C,0.00787*%
%ADD12C,0.00600*%
%ADD13C,0.01000*%
%ADD14C,0.00100*%
%ADD15C,0.01200*%
%ADD16C,0.00700*%
%ADD17C,0.00800*%
D10*
X32807Y57358D02*
G03*
X32807Y57358I-492J0D01*
G01*
X94677Y78642D02*
G03*
X94677Y78642I-492J0D01*
G01*
D11*
X32906Y76295D02*
G03*
X32906Y60705I-5906J-7795D01*
G01*
X93594Y59705D02*
G03*
X93594Y75295I5906J7795D01*
G01*
X32906Y60700D02*
Y76200D01*
X93594Y59800D02*
Y75300D01*
D12*
X115000Y28500D02*
G03*
X115000Y28500I-10000J0D01*
G01*
X64500Y28000D02*
G03*
X64500Y28000I-10000J0D01*
G01*
X102000Y24000D02*
X104000Y21500D01*
X102000Y19000D02*
X104000Y21500D01*
X102000Y19000D02*
Y24000D01*
X104000Y19000D02*
Y24000D01*
X55500Y35000D02*
X57500Y32500D01*
X55500Y35000D02*
X57500Y37500D01*
Y32500D02*
Y37500D01*
X55500Y32500D02*
Y37500D01*
D13*
X145444Y68000D02*
G03*
X145444Y68000I-8944J0D01*
G01*
X74292Y67500D02*
G03*
X74292Y67500I-8944J0D01*
G01*
X133000Y133000D02*
X143000D01*
X133000Y143000D02*
X143000D01*
Y123000D02*
Y143000D01*
X133000Y123000D02*
X143000D01*
X133000D02*
Y143000D01*
X16841Y123016D02*
Y121016D01*
Y122016D01*
X10842D01*
Y123016D01*
Y121016D01*
X15841Y114019D02*
X16841Y115018D01*
Y117018D01*
X15841Y118017D01*
X14841D01*
X13842Y117018D01*
Y115018D01*
X12842Y114019D01*
X11842D01*
X10842Y115018D01*
Y117018D01*
X11842Y118017D01*
X16841Y112019D02*
Y108021D01*
Y110020D01*
X10842D01*
X94900Y145800D02*
Y151798D01*
X97899D01*
X98899Y150798D01*
Y148799D01*
X97899Y147799D01*
X94900D01*
X96899D02*
X98899Y145800D01*
X103897D02*
Y151798D01*
X100898Y148799D01*
X104897D01*
X60900Y145800D02*
Y151798D01*
X63899D01*
X64899Y150798D01*
Y148799D01*
X63899Y147799D01*
X60900D01*
X62899D02*
X64899Y145800D01*
X66898Y150798D02*
X67898Y151798D01*
X69897D01*
X70897Y150798D01*
Y149799D01*
X69897Y148799D01*
X68897D01*
X69897D01*
X70897Y147799D01*
Y146800D01*
X69897Y145800D01*
X67898D01*
X66898Y146800D01*
X77900Y145800D02*
Y151798D01*
X80899D01*
X81899Y150798D01*
Y148799D01*
X80899Y147799D01*
X77900D01*
X79899D02*
X81899Y145800D01*
X87897D02*
X83898D01*
X87897Y149799D01*
Y150798D01*
X86897Y151798D01*
X84898D01*
X83898Y150798D01*
X45900Y145800D02*
Y151798D01*
X48899D01*
X49899Y150798D01*
Y148799D01*
X48899Y147799D01*
X45900D01*
X47899D02*
X49899Y145800D01*
X51898D02*
X53897D01*
X52898D01*
Y151798D01*
X51898Y150798D01*
X137299Y152498D02*
X135299D01*
X136299D01*
Y147500D01*
X135299Y146500D01*
X134300D01*
X133300Y147500D01*
X139298Y146500D02*
X141297D01*
X140298D01*
Y152498D01*
X139298Y151498D01*
D14*
X13507Y137802D02*
X15241D01*
X13407Y137702D02*
X15241D01*
X13407Y137602D02*
X15341D01*
X13307Y137502D02*
X15341D01*
X13207Y137402D02*
X15441D01*
X13207Y137302D02*
X15441D01*
X13107Y137202D02*
X15541D01*
X13007Y137102D02*
X15541D01*
X13007Y137002D02*
X15641D01*
X12907Y136902D02*
X15641D01*
X12907Y136802D02*
X15741D01*
X12807Y136702D02*
X15841D01*
X12707Y136602D02*
X15841D01*
X12707Y136502D02*
X15941D01*
X12607Y136402D02*
X15941D01*
X12607Y136302D02*
X16041D01*
X12507Y136202D02*
X16041D01*
X12407Y136102D02*
X16141D01*
X12407Y136002D02*
X16141D01*
X12307Y135902D02*
X16241D01*
X12307Y135802D02*
X16241D01*
X12207Y135702D02*
X16341D01*
X12107Y135602D02*
X16341D01*
X12107Y135502D02*
X16341D01*
X12007Y135402D02*
X16241D01*
X12007Y135302D02*
X16141D01*
X11907Y135202D02*
X16041D01*
X11807Y135102D02*
X15941D01*
X11807Y135002D02*
X15741D01*
X11707Y134902D02*
X15541D01*
X11607Y134802D02*
X15241D01*
X11607Y134702D02*
X14741D01*
X11507Y134602D02*
X13541D01*
X11507Y134502D02*
X12741D01*
X11407Y134402D02*
X12341D01*
X11307Y134302D02*
X12041D01*
X11307Y134202D02*
X11941D01*
X11207Y134102D02*
X11841D01*
X11307Y134002D02*
X11741D01*
X14307Y139102D02*
X14541D01*
X14207Y139002D02*
X14541D01*
X14207Y138902D02*
X14641D01*
X14107Y138802D02*
X14641D01*
X14007Y138702D02*
X14741D01*
X14007Y138602D02*
X14741D01*
X13907Y138502D02*
X14841D01*
X13807Y138402D02*
X14841D01*
X13807Y138302D02*
X14941D01*
X13707Y138202D02*
X14941D01*
X13707Y138102D02*
X15041D01*
X13607Y138002D02*
X15141D01*
X13507Y137902D02*
X15141D01*
X10207Y132402D02*
X10841D01*
X17007D02*
X18041D01*
X10107Y132302D02*
X10741D01*
X16907D02*
X18141D01*
X10107Y132202D02*
X10741D01*
X16907D02*
X18141D01*
X10007Y132102D02*
X10641D01*
X16807D02*
X18241D01*
X9907Y132002D02*
X10641D01*
X16707D02*
X18241D01*
X9907Y131902D02*
X10541D01*
X12007D02*
X12241D01*
X16607D02*
X18341D01*
X9807Y131802D02*
X10541D01*
X12007D02*
X12241D01*
X16507D02*
X18341D01*
X9707Y131702D02*
X10441D01*
X11907D02*
X12241D01*
X12407D02*
X12541D01*
X16407D02*
X18441D01*
X9707Y131602D02*
X10441D01*
X11807D02*
X12141D01*
X12307D02*
X12541D01*
X16207D02*
X18441D01*
X12307Y131502D02*
X12441D01*
X12707D02*
X12841D01*
X9607D02*
X10341D01*
X11807D02*
X12041D01*
X16107D02*
X18541D01*
X9607Y131402D02*
X10341D01*
X11607D02*
X11941D01*
X12307D02*
X12441D01*
X12707D02*
X12841D01*
X16007D02*
X18541D01*
X9507Y131302D02*
X10341D01*
X11507D02*
X11841D01*
X12207D02*
X12441D01*
X12607D02*
X12741D01*
X13007D02*
X13241D01*
X15907D02*
X18641D01*
X9407Y131202D02*
X10341D01*
X11507Y133902D02*
X11741D01*
X11607Y133802D02*
X11641D01*
X17607Y133002D02*
X17741D01*
X10507Y132902D02*
X10641D01*
X17407D02*
X17841D01*
X10407Y132802D02*
X10841D01*
X17207D02*
X17841D01*
X10407Y132702D02*
X10941D01*
X17107D02*
X17941D01*
X10307Y132602D02*
X10941D01*
X17107D02*
X17941D01*
X10207Y132502D02*
X10841D01*
X17007D02*
X18041D01*
X9307Y131002D02*
X10341D01*
X11607D02*
X11841D01*
X13007D02*
X13541D01*
X16107D02*
X18841D01*
X9307Y130902D02*
X10341D01*
X11707D02*
X12241D01*
X12607D02*
X12741D01*
X13007D02*
X13441D01*
X16307D02*
X18841D01*
X9207Y130802D02*
X10341D01*
X11707D02*
X12241D01*
X12607D02*
X13341D01*
X16407D02*
X18941D01*
X11707Y130702D02*
X12341D01*
X12707D02*
X13241D01*
X9107D02*
X10441D01*
X16607D02*
X18941D01*
X9107Y130602D02*
X10441D01*
X11707D02*
X11941D01*
X12107D02*
X12341D01*
X12707D02*
X13141D01*
X16707D02*
X19041D01*
X9007Y130502D02*
X10441D01*
X11707D02*
X11841D01*
X12207D02*
X12441D01*
X12607D02*
X13041D01*
X16907D02*
X19041D01*
X11607Y130402D02*
X11841D01*
X12307D02*
X12841D01*
X9007D02*
X10441D01*
X17007D02*
X19141D01*
X8907Y130302D02*
X10441D01*
X11607D02*
X11841D01*
X12307D02*
X12841D01*
X14607D02*
X14841D01*
X17207D02*
X19141D01*
X8907Y130202D02*
X10541D01*
X11607D02*
X11841D01*
X12307D02*
X12741D01*
X14507D02*
X15041D01*
X17407D02*
X19241D01*
X8807Y130102D02*
X10541D01*
X11507D02*
X11841D01*
X11607Y131202D02*
X11841D01*
X12207D02*
X12341D01*
X12607D02*
X12741D01*
X13007D02*
X13441D01*
X15807D02*
X18741D01*
X9407Y131102D02*
X10341D01*
X11607D02*
X11841D01*
X12207D02*
X12341D01*
X12607D02*
X12741D01*
X13007D02*
X13541D01*
X16007D02*
X18741D01*
X12107Y131002D02*
X12341D01*
X12607D02*
X12741D01*
X12407Y130102D02*
X12641D01*
X14407D02*
X15141D01*
X17507D02*
X19241D01*
X8707Y130002D02*
X10541D01*
X11607D02*
X11841D01*
X12307D02*
X12641D01*
X14307D02*
X15341D01*
X17707D02*
X19341D01*
X8707Y129902D02*
X10541D01*
X11607D02*
X11941D01*
X12307D02*
X12541D01*
X14207D02*
X15441D01*
X17807D02*
X19341D01*
X8607Y129802D02*
X10541D01*
X11707D02*
X11941D01*
X12307D02*
X12541D01*
X14107D02*
X15641D01*
X18007D02*
X19441D01*
X8507Y129702D02*
X10641D01*
X11707D02*
X11941D01*
X12207D02*
X12441D01*
X14007D02*
X14241D01*
X14607D02*
X15841D01*
X18207D02*
X19441D01*
X13907Y129602D02*
X14141D01*
X14707D02*
X15941D01*
X8507D02*
X10641D01*
X11807D02*
X12441D01*
X18307D02*
X19541D01*
X8407Y129502D02*
X10641D01*
X11807D02*
X12341D01*
X13807D02*
X14041D01*
X14707D02*
X16141D01*
X18507D02*
X19641D01*
X8407Y129402D02*
X10641D01*
X11907D02*
X12341D01*
X12707D02*
X13241D01*
X13807D02*
X14041D01*
X14707D02*
X16241D01*
X18607D02*
X19641D01*
X8307Y129302D02*
X10741D01*
X11907D02*
X12241D01*
X12607D02*
X13341D01*
X13707D02*
X14041D01*
X14807D02*
X16441D01*
X18807D02*
X19741D01*
X8207Y129202D02*
X11141D01*
X11907D02*
X12241D01*
X12607D02*
X12741D01*
X13307D02*
X14041D01*
X14807D02*
X16641D01*
X19007D02*
X19741D01*
X11907Y129102D02*
X12241D01*
X12507D02*
X12641D01*
X8207D02*
X10841D01*
X11107D02*
X11241D01*
X13407D02*
X14141D01*
X14807D02*
X16741D01*
X19107D02*
X19841D01*
X8107Y129002D02*
X10841D01*
X11107D02*
X11241D01*
X11907D02*
X12141D01*
X12507D02*
X12541D01*
X13407D02*
X13741D01*
X14007D02*
X14141D01*
X14807D02*
X16941D01*
X19307D02*
X19841D01*
X12407Y128902D02*
X12541D01*
X13407D02*
X13641D01*
X8107D02*
X10841D01*
X11207D02*
X11241D01*
X11907D02*
X12141D01*
X14107D02*
X14241D01*
X14707D02*
X17141D01*
X19407D02*
X19941D01*
X8007Y128802D02*
X10841D01*
X11207D02*
X11241D01*
X11907D02*
X12141D01*
X12407D02*
X12441D01*
X13407D02*
X13541D01*
X14107D02*
X14241D01*
X14607D02*
X17241D01*
X19607D02*
X19941D01*
X7907Y128702D02*
X10941D01*
X11207D02*
X11341D01*
X7907Y128602D02*
X10941D01*
X11307D02*
X11341D01*
X11307Y128402D02*
X11341D01*
X7707Y128302D02*
X11041D01*
X14107D02*
X18041D01*
X7407Y127902D02*
X18741D01*
X7407Y127802D02*
X18841D01*
X7307Y127702D02*
X19041D01*
X9207Y127602D02*
X19141D01*
X16307Y127502D02*
X19341D01*
X7807Y128502D02*
X10941D01*
X11307D02*
X11341D01*
X7707Y128402D02*
X11041D01*
X14407Y139302D02*
X14441D01*
X14307Y139202D02*
X14441D01*
X11207Y128302D02*
X11441D01*
X11607D02*
X12341D01*
X13107D02*
X13441D01*
X7607Y128202D02*
X12441D01*
X13007D02*
X18241D01*
X7607Y128102D02*
X18341D01*
X7507Y128002D02*
X18541D01*
X19807Y128702D02*
X20041D01*
X19907Y128602D02*
X20041D01*
X11907Y128702D02*
X12441D01*
X13307D02*
X13541D01*
X14207D02*
X17441D01*
X11907Y128602D02*
X12341D01*
X13307D02*
X13441D01*
X14207D02*
X17541D01*
X11807Y128502D02*
X12341D01*
X13207D02*
X13441D01*
X14207D02*
X17741D01*
X11707Y128402D02*
X12341D01*
X13207D02*
X13441D01*
X14207D02*
X17941D01*
D15*
X98600Y130100D02*
Y134100D01*
Y102100D02*
Y106100D01*
X102600D02*
Y130100D01*
X94600D02*
X102600D01*
X94600Y106100D02*
Y130100D01*
Y106100D02*
X102600D01*
X77600D02*
X85600D01*
X77600D02*
Y130100D01*
X85600D01*
Y106100D02*
Y130100D01*
X81600Y102100D02*
Y106100D01*
Y130100D02*
Y134100D01*
X64600Y130100D02*
Y134100D01*
Y102100D02*
Y106100D01*
X68600D02*
Y130100D01*
X60600D02*
X68600D01*
X60600Y106100D02*
Y130100D01*
Y106100D02*
X68600D01*
X45600D02*
X53600D01*
X45600D02*
Y130100D01*
X53600D01*
Y106100D02*
Y130100D01*
X49600Y102100D02*
Y106100D01*
Y130100D02*
Y134100D01*
D16*
X101000Y21500D02*
X105000D01*
X102000Y24500D02*
X104000Y26500D01*
X103000D02*
X104000D01*
Y25500D02*
Y26500D01*
X105000Y24500D02*
X107000Y26500D01*
X106000D02*
X107000D01*
Y25500D02*
Y26500D01*
X54500Y35000D02*
X58500D01*
X55500Y30000D02*
X57500Y32000D01*
X55500Y30000D02*
X56500D01*
X55500D02*
Y31000D01*
X52500Y30000D02*
X54500Y32000D01*
X52500Y30000D02*
X53500D01*
X52500D02*
Y31000D01*
D17*
X130988Y62126D02*
Y66126D01*
X128988Y64126D02*
X132988D01*
X59474Y73012D02*
X63474D01*
X61474Y71012D02*
Y75012D01*
M02*
