M48
;Layer_Color=9474304
;FILE_FORMAT=2:5
INCH,LZ
;TYPE=PLATED
T1F00S00C0.02800
T2F00S00C0.03150
T3F00S00C0.03543
;TYPE=NON_PLATED
T4F00S00C0.03937
%
T01
X00495Y0028
X00595
X01Y00285
X011
T02
X01365Y0062
Y0074
X00986Y00981
X00816
X00646
X00496
Y01381
X00646
X00816
X00986
X0071348Y00675
X0059348
T03
X0138Y0128
Y0138
X00995Y0074
Y00675
Y0061
X0027Y0062
Y00685
Y0075
T04
X0151575Y0005906
X0005906Y0151575
M30
